<?xml version="1.0" encoding="utf-8"?>
<!-- Generator: Adobe Illustrator 27.4.1, SVG Export Plug-In . SVG Version: 6.00 Build 0)  -->
<svg version="1.1" id="Layer_1" xmlns="http://www.w3.org/2000/svg" xmlns:xlink="http://www.w3.org/1999/xlink" x="0px" y="0px"
	 viewBox="0 0 48 48" style="enable-background:new 0 0 48 48;" xml:space="preserve">
<style type="text/css">
	.st0{display:none;fill:#FFFFFF;}
	.st1{display:none;fill:#CF000F;}
	.st2{fill:#161616;}
	.st3{fill:#CF000F;}
	.st4{fill:#FEFEFE;}
</style>
<path class="st0" d="M76,48c3.2,0,5.7-0.9,7.6-2.8c1.9-1.9,2.9-4.2,2.9-7.2v-1.5H75.8v3.1H83c-0.3,1.5-1.1,2.7-2.3,3.5
	c-1.2,0.9-2.8,1.3-4.6,1.3c-2.4,0-4.3-0.7-5.8-2.2c-1.5-1.4-2.2-3.2-2.2-5.4c0-2.2,0.7-4,2.2-5.5c1.5-1.5,3.3-2.2,5.6-2.2
	c1.4,0,2.7,0.3,3.8,0.9c1.1,0.6,2,1.4,2.6,2.5l3-1.7c-0.9-1.6-2.2-2.8-3.9-3.7c-1.7-0.9-3.5-1.3-5.5-1.3c-3.2,0-5.9,1.1-8.1,3.2
	c-2.2,2.1-3.2,4.7-3.2,7.8c0,3.1,1.1,5.7,3.2,7.8C70,46.9,72.7,48,76,48z"/>
<path class="st1" d="M73.2,20.2c-0.5,0.5-1.3,0.9-2.1,0.9c-0.8,0-1.6-0.3-2.1-0.9c-0.5-0.5-0.9-1.4-0.9-2.2s0.3-1.5,0.8-2.2
	c0.5-0.5,1.3-0.9,2.1-0.9s1.6,0.3,2.1,0.9c0.5,0.5,0.9,1.4,0.9,2.2S73.9,19.7,73.2,20.2z"/>
<g>
	<path class="st2" d="M0,0h48v48H0V0z"/>
	<path class="st3" d="M36.4,35.4c0.6,0,1-0.2,1.4-0.6c0.4-0.4,0.6-0.9,0.6-1.4c0-0.6-0.2-1-0.6-1.4c-0.4-0.4-0.9-0.6-1.4-0.6
		c-0.6,0-1,0.2-1.4,0.6c-0.4,0.4-0.6,0.9-0.6,1.4c0,0.6,0.2,1,0.6,1.4C35.4,35.2,35.9,35.4,36.4,35.4z"/>
	<g>
		<path class="st4" d="M26.4,34.9l-2.2-6.8h-5.9l-2.1,6.8h-4.8L19,11.2h4.6l7.7,23.6H26.4z M23,23.8c0,0-1.7-5.2-1.7-5.4
			c0,0.2-0.1,0.3-0.1,0.5l-1.6,4.9H23z"/>
	</g>
</g>
</svg>
