<?xml version="1.0" encoding="utf-8"?>
<!-- Generator: Adobe Illustrator 27.4.1, SVG Export Plug-In . SVG Version: 6.00 Build 0)  -->
<svg version="1.1" id="Layer_1" xmlns="http://www.w3.org/2000/svg" xmlns:xlink="http://www.w3.org/1999/xlink" x="0px" y="0px"
	 viewBox="0 0 53.5 15" style="enable-background:new 0 0 53.5 15;" xml:space="preserve">
<style type="text/css">
	.st0{display:none;fill:#FFFFFF;}
	.st1{display:none;}
	.st2{display:inline;fill:none;}
	.st3{display:inline;}
	.st4{display:inline;fill:#FEFEFE;}
	.st5{display:inline;fill:#FFFFFF;}
	.st6{fill:#CF000F;}
	.st7{fill:#FEFEFE;}
</style>
<g>
	<path class="st6" d="M52.9,12.9c-0.4,0.4-1,0.7-1.6,0.7s-1.2-0.2-1.6-0.7c-0.4-0.4-0.7-1-0.7-1.6c0-0.6,0.2-1.1,0.6-1.6
		C50,9.3,50.6,9,51.2,9s1.2,0.2,1.6,0.7c0.4,0.4,0.7,1,0.7,1.6C53.5,11.9,53.4,12.5,52.9,12.9z"/>
	<g>
		<path class="st7" d="M9.7,14.6l-1.4-4.2H4.5l-1.4,4.2H0L5,0h3l5,14.6H9.7z M7.5,7.8c0,0-1.1-3.2-1.1-3.3c0,0.1-0.1,0.2-0.1,0.3
			l-1,3H7.5z"/>
		<path class="st7" d="M16.2,14.8c-2.3,0-3.6-1.7-3.6-3.4c0-1.2,0.6-4,5.7-4.2c-0.1-0.8-0.6-1.1-1.5-1.1c-0.7,0-1.6,0.2-2.1,0.6
			L14,7.2l-0.8-2.4l0.4-0.3c0.9-0.6,2.2-1,3.5-1c2.8,0,4.3,1.6,4.3,4.5v3.6c0,0.9,0.1,1.6,0.1,2.2l0.1,0.7h-2.9l-0.1-0.5
			C18,14.5,17.1,14.8,16.2,14.8z M18.4,9.7c-1.8,0.1-2.8,0.6-2.8,1.5c0,0.9,0.6,1,1,1c1,0,1.5-0.6,1.7-1.2c0-0.1,0.1-0.3,0.1-0.3
			V9.7z"/>
		<path class="st7" d="M34.9,14.6v-6c0-2.3-1.1-2.3-1.4-2.3c-0.7,0-1.3,0.6-1.5,1.2c-0.1,0.2-0.1,0.4-0.1,0.7v6.5h-3V8.2
			c0-0.6-0.1-2-1.4-2c-0.8,0-1.4,0.7-1.6,1.3c-0.1,0.2-0.1,0.4-0.1,0.7v6.4h-3V7c0-1,0-1.8-0.1-2.5l-0.1-0.7h2.8l0,0.6
			c0.7-0.6,1.5-0.8,2.5-0.8c1.1,0,2.1,0.5,2.8,1.4c0.2-0.2,0.4-0.4,0.6-0.6c0.7-0.5,1.5-0.8,2.5-0.8c1.7,0,3.8,1.3,3.8,4.8v6.3H34.9
			z"/>
		<path class="st7" d="M39.4,14.6V4.5h3v10.1H39.4z M40.9,3.4c-0.9,0-1.7-0.7-1.7-1.7c0-1,0.8-1.7,1.7-1.7c1,0,1.7,0.7,1.7,1.7
			c0,0.4-0.1,0.9-0.5,1.2C41.9,3.3,41.4,3.4,40.9,3.4z"/>
		<path class="st7" d="M44.1,14.6V7.4c0-1.2,0-2.1-0.1-2.9l0-0.7h2.8l0,0.6c0.6-0.5,1.3-0.8,2.2-0.8c0.2,0,0.4,0,0.6,0.1l0.5,0.1
			v2.9l-0.8-0.2c-0.1,0-0.3,0-0.5,0c-1,0-1.6,0.9-1.7,1.7c0,0.2-0.1,0.4-0.1,0.7v5.7H44.1z"/>
	</g>
</g>
</svg>
